<?xml version="1.0" encoding="UTF-8"?>
<svg xmlns="http://www.w3.org/2000/svg"
    width="290" height="70">
  <defs>
    <linearGradient id="grad" x1="0%" y1="0%" x2="100%" y2="0%">
      <stop offset="0%" stop-color="rgb(229,57,53)" />
      <stop offset="20.69%" stop-color="rgb(255,109,0)" />
      <stop offset="41.38%" stop-color="rgb(255,171,0)" />
      <stop offset="62.07%" stop-color="rgb(100,200,90)" />
      <stop offset="82.76%" stop-color="rgb(0,180,240)" />
      <stop offset="100%" stop-color="rgb(101,90,255)" />
    </linearGradient>
  </defs>
  <path d="M0,10 h50 v10 h10 v-20 h50 v30 h10 v-20 h50 v20 h50 v-20 h70 v50
      h-60 v10 h-50 v-10 h-60 v-10 h-60 v-20 h-10 v30 h-50 Z"
      fill="url(#grad)" />
  <path d="M0, 10 h50 v10 h-40 v10 h40 v30 h-40 v-10 h30 v-10 h-40 Z"
      fill="#fff" opacity=".6" />
  <path d="M60,0 h50 v30 h-30 v-10 h20 v-10 h-30 v30 h40 v10 h-50 Z"
      fill="#fff" opacity=".6" />
  <path d="M120,10 h50 v50 h-50 v-10 h40 v-30 h-30 v10 h20 v10 h-30 Z"
      fill="#fff" opacity=".6" />
  <path d="M180,30 h40 v-20 h10 v60 h-50 z M190,40 h30 v20 h-30 Z"
      fill-rule="evenodd" fill="#fff" opacity=".6" />
  <path d="M240,20 h10 v15.858 L275.858,10 L290,10 l-50,50 Z"
      fill="#fff" opacity=".6" />
</svg>
